:version 1.10
:name ASF
:units
  mass 1
  length 1
  angle deg
:documentation
  ASF file generated by Kaydara
:root
  axis xyz
  order  tx ty tz rx ry rz
  position 0 0 0
  orientation 0 0 0
:bonedata
  begin
    id 1
    name lfemurDummy
    direction 0.61522 -0.761478 0.204097
    length 5.68318
    axis 0 -0 0 xyz
  end
  begin
    id 2
    name lfemur
    direction 0.34202 -0.939693 -5.84747e-008
    length 16.9147
    axis 0 -0 20 xyz
    dof rx ry rz
    limits( -inf , inf )
( -inf , inf )
( -inf , inf )

  end
  begin
    id 3
    name ltibia
    direction 0.34202 -0.939693 1.20839e-009
    length 18.0532
    axis 0 -0 20 xyz
    dof rz ry rx
    limits( -inf , inf )
( -inf , inf )
( -inf , inf )

  end
  begin
    id 4
    name lfoot
    direction 0.0841971 -0.23133 0.969225
    length 5.23822
    axis -90 7.62852e-016 20 xyz
    dof ry rx rz
    limits( -inf , inf )
( -inf , inf )
( -inf , inf )

  end
  begin
    id 5
    name ltoes
    direction 0 0 0
    length 0
    axis 0 0 0 xyz
    dof rz ry rx
    limits( -inf , inf )
( -inf , inf )
( -inf , inf )

  end
  begin
    id 6
    name rfemurDummy
    direction -0.625247 -0.75382 0.202044
    length 5.74091
    axis 0 -0 0 xyz
  end
  begin
    id 7
    name rfemur
    direction -0.34202 -0.939693 -1.47013e-008
    length 16.4922
    axis 0 -0 -20 xyz
    dof rx ry rz
    limits( -inf , inf )
( -inf , inf )
( -inf , inf )

  end
  begin
    id 8
    name rtibia
    direction -0.34202 -0.939693 -7.74345e-010
    length 18.2421
    axis 0 -0 -20 xyz
    dof rz ry rx
    limits( -inf , inf )
( -inf , inf )
( -inf , inf )

  end
  begin
    id 9
    name rfoot
    direction -0.124331 -0.341598 0.931586
    length 5.45787
    axis -90 -7.62852e-016 -20 xyz
    dof ry rx rz
    limits( -inf , inf )
( -inf , inf )
( -inf , inf )

  end
  begin
    id 10
    name rtoes
    direction 0 0 0
    length 0
    axis 0 0 0 xyz
    dof rz ry rx
    limits( -inf , inf )
( -inf , inf )
( -inf , inf )

  end
  begin
    id 11
    name lowerbackDummy
    direction 0 0 0
    length 0
    axis 0 -0 0 xyz
  end
  begin
    id 12
    name lowerback
    direction -0.0218484 0.994884 -0.0986304
    length 4.45607
    axis 0 -0 0 xyz
    dof rx ry rz
    limits( -inf , inf )
( -inf , inf )
( -inf , inf )

  end
  begin
    id 13
    name upperback
    direction -0.00973057 0.999717 -0.0217111
    length 4.47449
    axis 0 -0 0 xyz
    dof rx ry rz
    limits( -inf , inf )
( -inf , inf )
( -inf , inf )

  end
  begin
    id 14
    name thorax
    direction -0.000928171 0.999699 0.0245198
    length 4.50973
    axis 0 -0 0 xyz
    dof rx ry rz
    limits( -inf , inf )
( -inf , inf )
( -inf , inf )

  end
  begin
    id 15
    name rclavicle
    direction -0.9009 0.425937 -0.0834055
    length 7.28587
    axis 0 -0 0 xyz
    dof rx ry rz
    limits( -inf , inf )
( -inf , inf )
( -inf , inf )

  end
  begin
    id 16
    name rhumerus
    direction -1 -2.23604e-007 -1.42637e-007
    length 13.5704
    axis 180 30 90 xyz
    dof rx ry rz
    limits( -inf , inf )
( -inf , inf )
( -inf , inf )

  end
  begin
    id 17
    name rradius
    direction -1 5.68281e-008 -4.4952e-007
    length 8.06782
    axis 180 30 90 xyz
    dof rz ry rx
    limits( -inf , inf )
( -inf , inf )
( -inf , inf )

  end
  begin
    id 18
    name rwrist
    direction -1 1.51393e-007 1.38143e-007
    length 4.03391
    axis -90 -90 0 xyz
    dof rz rx ry
    limits( -inf , inf )
( -inf , inf )
( -inf , inf )

  end
  begin
    id 19
    name rthumb
    direction 0 0 0
    length 0
    axis 0 0 0 xyz
    dof ry rx rz
    limits( -inf , inf )
( -inf , inf )
( -inf , inf )

  end
  begin
    id 20
    name rhand
    direction -1 -3.34077e-007 -5.59631e-007
    length 1.29744
    axis -90 -90 0 xyz
    dof ry rx rz
    limits( -inf , inf )
( -inf , inf )
( -inf , inf )

  end
  begin
    id 21
    name rfingers
    direction 0 0 0
    length 0
    axis 0 0 0 xyz
    dof rz ry rx
    limits( -inf , inf )
( -inf , inf )
( -inf , inf )

  end
  begin
    id 22
    name lclavicle
    direction 0.940017 0.332249 -0.0773232
    length 8.29589
    axis 0 -0 0 xyz
    dof rx ry rz
    limits( -inf , inf )
( -inf , inf )
( -inf , inf )

  end
  begin
    id 23
    name lhumerus
    direction 1 7.41158e-008 -1.44768e-008
    length 12.0042
    axis 180 -30 -90 xyz
    dof rx ry rz
    limits( -inf , inf )
( -inf , inf )
( -inf , inf )

  end
  begin
    id 24
    name lradius
    direction 1 -1.32972e-007 3.10821e-007
    length 8.1902
    axis 180 -30 -90 xyz
    dof rz ry rx
    limits( -inf , inf )
( -inf , inf )
( -inf , inf )

  end
  begin
    id 25
    name lwrist
    direction 1 3.08957e-007 4.01394e-007
    length 4.09509
    axis -90 90 0 xyz
    dof rz rx ry
    limits( -inf , inf )
( -inf , inf )
( -inf , inf )

  end
  begin
    id 26
    name lthumb
    direction 0 0 0
    length 0
    axis 0 0 0 xyz
    dof ry rx rz
    limits( -inf , inf )
( -inf , inf )
( -inf , inf )

  end
  begin
    id 27
    name lhand
    direction 1 -1.64125e-007 -6.99514e-007
    length 1.37229
    axis -90 90 0 xyz
    dof ry rx rz
    limits( -inf , inf )
( -inf , inf )
( -inf , inf )

  end
  begin
    id 28
    name lfingers
    direction 0 0 0
    length 0
    axis 0 0 0 xyz
    dof rz ry rx
    limits( -inf , inf )
( -inf , inf )
( -inf , inf )

  end
  begin
    id 29
    name lowerneck
    direction -0.030798 0.998024 0.0547665
    length 3.93918
    axis 0 -0 0 xyz
    dof rx ry rz
    limits( -inf , inf )
( -inf , inf )
( -inf , inf )

  end
  begin
    id 30
    name upperneck
    direction 0.0531588 0.996611 -0.0627736
    length 3.95491
    axis 0 -0 0 xyz
    dof rx ry rz
    limits( -inf , inf )
( -inf , inf )
( -inf , inf )

  end
  begin
    id 31
    name head
    direction 0 0 0
    length 0
    axis 0 0 0 xyz
    dof rx ry rz
    limits( -inf , inf )
( -inf , inf )
( -inf , inf )

  end
:hierarchy
  begin
    root lfemurDummy rfemurDummy lowerbackDummy
    lfemurDummy lfemur
    lfemur ltibia
    ltibia lfoot
    lfoot ltoes
    rfemurDummy rfemur
    rfemur rtibia
    rtibia rfoot
    rfoot rtoes
    lowerbackDummy lowerback
    lowerback upperback
    upperback thorax
    thorax rclavicle lclavicle lowerneck
    rclavicle rhumerus
    rhumerus rradius
    rradius rwrist
    rwrist rthumb rhand
    rhand rfingers
    lclavicle lhumerus
    lhumerus lradius
    lradius lwrist
    lwrist lthumb lhand
    lhand lfingers
    lowerneck upperneck
    upperneck head
  end

:SAMPLES-PER-SECOND 30
:FULLY-SPECIFIED
:DEGREES
37
root  0.8790110979 37.76266744 3.563822348 133.1570129 -83.27880096 -130.3930054
lowerback  12.69050026 2.609299898 1.025449991
upperback  3.262059927 3.440330029 -0.006696749944
thorax  -3.617110014 1.636139989 -1.11263001
lowerneck  -0.8808010221 7.939889908 -5.121439934
upperneck  12.66119957 10.23120022 4.388339996
head  3.779570103 4.912290096 2.661540031
lclavicle  0 -9.442270133e-015 7.951389973e-016
lhumerus  -18.56879997 -3.299629927 85.10800171
lradius  2.930533255e-031 -1.969979411e-031 146.0899963
lwrist  -7.062250077e-031 1.765562519e-031 18.47570038
lhand  -1.496451383e-031 -27.76390076 20.11240005
lfingers  90 7.125020027 -90
lthumb  89.89689403 5.08795885 91.16245106
rclavicle  0 -9.442270133e-015 7.951389973e-016
rhumerus  -8.081620216 21.49259949 -81.06909943
rradius  -2.826669966e-031 2.116313054e-031 143.1779938
rwrist  7.062250077e-031 -1.765562519e-031 -8.237420082
rhand  -7.920061211e-032 -33.2840004 9.303460121
rfingers  -90 -7.125020027 -90
rthumb  -92.93752616 -24.25625642 -97.11982154
rfemur  -0.4314840138 12.22799969 11.07149982
rtibia  -0 0 45.84669876
rfoot  -4.67834929e-032 -19.35639954 -5.784249783
rtoes  5.373923086 19.29304026 -105.8922705
lfemur  -34.15069962 10.85410023 -1.999959946
ltibia  -0 0 63.18090057
lfoot  4.584513733e-032 -15.68000031 -0.2313240021
ltoes  -4.250644065 -19.5611806 -102.515957
38
root  0.8806977685 37.88155683 3.504289041 128.4450073 -84.18720245 -125.9440002
lowerback  12.5170002 2.720829964 0.549883008
upperback  3.720489979 3.500089884 -0.1429920048
thorax  -3.062410116 1.667060018 -0.9737160206
lowerneck  -0.7932149768 7.613190174 -5.012420177
upperneck  12.32740021 9.78098011 4.523489952
head  3.666810036 4.709390163 2.661149979
lclavicle  0 -9.442270133e-015 7.951389973e-016
lhumerus  -17.80130005 -3.914099932 84.67369843
lradius  2.912255056e-031 -1.996901231e-031 145.5619965
lwrist  0 -0 18.03319931
lhand  -1.496451383e-031 -27.76390076 20.11240005
lfingers  90 7.125020027 -90
lthumb  89.89689403 5.08795885 91.16245106
rclavicle  0 -9.442270133e-015 7.951389973e-016
rhumerus  -9.08619976 20.62779999 -81.96360016
rradius  -2.809401668e-031 2.139183561e-031 142.7129974
rwrist  7.062250077e-031 -3.531125038e-031 -8.425840378
rhand  -7.920061211e-032 -33.2840004 9.303460121
rfingers  -90 -7.125020027 -90
rthumb  -92.93752616 -24.25625642 -97.11982154
rfemur  -0.8728960156 12.17780018 10.67210007
rtibia  -0 0 47.28969955
rfoot  -4.621301805e-032 -17.2303009 -4.358250141
rtoes  5.373923086 19.29304026 -105.8922705
lfemur  -35.11370087 12.3427 -2.469630003
ltibia  -0 0 64.10070038
lfoot  4.525167679e-032 -12.73169994 -2.539040089
ltoes  -4.250644065 -19.5611806 -102.515957
39
root  0.8702510924 38.00933417 3.459044329 122.5780029 -85.04799652 -120.3129883
lowerback  12.53969955 2.795429945 0.0456780009
upperback  3.972290039 3.522340059 -0.2142439932
thorax  -2.837800026 1.675860047 -0.7620919943
lowerneck  -0.620611012 7.380529881 -5.200729847
upperneck  12.26980019 9.440620422 4.793640137
head  3.609940052 4.543799877 2.765789986
lclavicle  0 -9.442270133e-015 7.951389973e-016
lhumerus  -17.21829987 -4.353690147 84.15409851
lradius  2.89690459e-031 -2.019105702e-031 145.1239929
lwrist  -1.412450015e-030 8.827812596e-032 17.44479942
lhand  -1.496451383e-031 -27.76390076 20.11240005
lfingers  90 7.125020027 -90
lthumb  89.89689403 5.08795885 91.16245106
rclavicle  0 -9.442270133e-015 7.951389973e-016
rhumerus  -10.09889984 19.91799927 -82.77629852
rradius  -2.785748715e-031 2.169895881e-031 142.0839996
rwrist  0 -0 -8.355239868
rhand  -7.920061211e-032 -33.2840004 9.303460121
rfingers  -90 -7.125020027 -90
rthumb  -92.93752616 -24.25625642 -97.11982154
rfemur  -1.497830033 12.22439957 10.18490028
rtibia  -0 0 48.83390045
rfoot  -6.842038427e-032 -14.60809994 -3.243979931
rtoes  5.373923086 19.29304026 -105.8922705
lfemur  -36.11930084 13.77110004 -3.023590088
ltibia  -0 0 64.98899841
lfoot  4.475578659e-032 -9.522660255 -4.427420139
ltoes  -4.250644065 -19.5611806 -102.515957
40
root  0.8558777374 38.1431099 3.418066746 114.3349915 -85.91020203 -112.2860107
lowerback  12.69299984 2.852999926 -0.4186100066
upperback  4.205420017 3.522239923 -0.3789019883
thorax  -2.695339918 1.671190023 -0.6736260056
lowerneck  -0.6704649925 7.229969978 -5.299160004
upperneck  12.36989975 9.222499847 4.997550011
head  3.653009892 4.438739777 2.855479956
lclavicle  0 -9.442270133e-015 7.951389973e-016
lhumerus  -16.40679932 -4.802259922 83.3227005
lradius  2.884836921e-031 -2.036310383e-031 144.7830048
lwrist  -7.062250077e-031 8.827812596e-032 16.94400024
lhand  -1.496451383e-031 -27.76390076 20.11240005
lfingers  90 7.125020027 -90
lthumb  89.89689403 5.08795885 91.16245106
rclavicle  0 -9.442270133e-015 7.951389973e-016
rhumerus  -10.63570023 19.17000008 -83.53320313
rradius  -2.751283132e-031 2.213432892e-031 141.1829987
rwrist  7.062250077e-031 -0 -7.779960155
rhand  -7.920061211e-032 -33.2840004 9.303460121
rfingers  -90 -7.125020027 -90
rthumb  -92.93752616 -24.25625642 -97.11982154
rfemur  -2.319000006 12.37090015 9.663339615
rtibia  -0 0 50.46310043
rfoot  -4.498761399e-032 -11.14589977 -2.58446002
rtoes  5.373923086 19.29304026 -105.8922705
lfemur  -37.17440033 14.96580029 -3.702610016
ltibia  -0 0 65.78780365
lfoot  4.440224225e-032 -6.24131012 -5.621200085
ltoes  -4.250644065 -19.5611806 -102.515957
